<svg width="20" height="20" viewBox="0 0 20 20" fill="none" xmlns="http://www.w3.org/2000/svg">
<mask id="mask0_135_830" style="mask-type:alpha" maskUnits="userSpaceOnUse" x="0" y="0" width="20" height="20">
<rect width="20" height="20" fill="#D9D9D9"/>
</mask>
<g mask="url(#mask0_135_830)">
<path d="M10 18.3542C9.77778 18.3542 9.56598 18.3125 9.36459 18.2292C9.1632 18.1458 8.97917 18.0278 8.8125 17.875L2.125 11.1875C1.97222 11.0208 1.85417 10.8368 1.77084 10.6354C1.6875 10.434 1.64584 10.2222 1.64584 10C1.64584 9.77777 1.6875 9.5625 1.77084 9.35416C1.85417 9.14583 1.97222 8.96527 2.125 8.8125L8.8125 2.12499C8.97917 1.95833 9.1632 1.8368 9.36459 1.76041C9.56598 1.68402 9.77778 1.64583 10 1.64583C10.2222 1.64583 10.4375 1.68402 10.6458 1.76041C10.8542 1.8368 11.0347 1.95833 11.1875 2.12499L17.875 8.8125C18.0417 8.96527 18.1632 9.14583 18.2396 9.35416C18.316 9.5625 18.3542 9.77777 18.3542 10C18.3542 10.2222 18.316 10.434 18.2396 10.6354C18.1632 10.8368 18.0417 11.0208 17.875 11.1875L11.1875 17.875C11.0347 18.0278 10.8542 18.1458 10.6458 18.2292C10.4375 18.3125 10.2222 18.3542 10 18.3542ZM10 16.6875L16.6875 10L10 3.3125L3.3125 10L10 16.6875ZM9.16667 10.8333H10.8333V5.83333H9.16667V10.8333ZM10 13.3333C10.2361 13.3333 10.434 13.2535 10.5938 13.0937C10.7535 12.934 10.8333 12.7361 10.8333 12.5C10.8333 12.2639 10.7535 12.066 10.5938 11.9062C10.434 11.7465 10.2361 11.6667 10 11.6667C9.76389 11.6667 9.56598 11.7465 9.40625 11.9062C9.24653 12.066 9.16667 12.2639 9.16667 12.5C9.16667 12.7361 9.24653 12.934 9.40625 13.0937C9.56598 13.2535 9.76389 13.3333 10 13.3333Z" fill="#C20E02"/>
</g>
</svg>
